<?xml version="1.0" standalone="no"?>
<!DOCTYPE svg PUBLIC "-//W3C//DTD SVG 20010904//EN"
 "http://www.w3.org/TR/2001/REC-SVG-20010904/DTD/svg10.dtd">
<svg version="1.0" xmlns="http://www.w3.org/2000/svg"
 width="512.000000pt" height="512.000000pt" viewBox="0 0 512.000000 512.000000"
 preserveAspectRatio="xMidYMid meet">
<metadata>
Created by potrace 1.11, written by Peter Selinger 2001-2013
</metadata>
<g transform="translate(0.000000,512.000000) scale(0.100000,-0.100000)"
fill="#000000" stroke="none">
<path d="M3000 5105 c-289 -61 -518 -288 -583 -579 -19 -82 -24 -479 -7 -565
5 -30 22 -79 37 -110 32 -66 130 -167 193 -198 98 -49 139 -53 532 -53 202 0
368 -2 368 -4 0 -2 -20 -82 -45 -178 -40 -154 -64 -261 -80 -345 -3 -16 -7
-39 -10 -53 -10 -47 -44 -255 -50 -310 -4 -30 -9 -62 -10 -70 -2 -8 -6 -49
-10 -90 -4 -41 -9 -88 -11 -105 -9 -95 -21 -305 -23 -404 -1 -50 -2 -53 -23
-48 -13 3 -60 15 -106 26 -45 11 -95 23 -110 26 -15 2 -49 9 -77 14 -56 11
-209 23 -299 25 l-58 1 -17 45 c-120 313 -361 579 -663 731 -77 39 -278 106
-343 115 -27 3 -54 9 -59 12 -16 9 -309 11 -366 1 -30 -5 -72 -11 -94 -14 -50
-8 -201 -52 -246 -71 -184 -81 -315 -170 -445 -299 -157 -156 -271 -345 -334
-550 -44 -144 -59 -265 -55 -435 3 -143 6 -176 25 -255 5 -22 12 -49 14 -59
10 -44 50 -155 77 -215 118 -265 350 -508 609 -640 97 -50 280 -114 354 -125
23 -4 52 -9 65 -12 14 -3 122 -8 240 -11 l215 -5 120 -58 c320 -155 613 -229
940 -235 229 -4 355 12 595 76 63 17 125 33 137 35 12 2 34 9 48 14 14 5 38
12 53 15 15 3 36 7 47 9 162 38 350 75 460 91 23 3 50 7 60 9 41 8 169 21 290
31 151 12 180 14 275 16 52 1 119 8 148 15 161 42 284 164 329 329 11 41 13
176 9 740 -2 380 -6 710 -9 735 -3 25 -8 79 -12 120 -6 80 -6 80 -30 270 -29
226 -78 482 -139 725 -13 55 -32 127 -41 160 -19 71 -132 431 -145 460 -4 11
-30 76 -56 145 -107 284 -243 580 -309 671 -150 209 -357 350 -616 419 -77 21
-110 23 -389 26 -231 2 -321 0 -370 -11z m659 -298 c141 -37 230 -79 323 -152
70 -55 154 -155 190 -227 159 -319 298 -682 407 -1060 45 -155 102 -385 116
-471 4 -18 10 -50 15 -72 5 -22 11 -53 14 -70 27 -163 36 -218 41 -265 3 -30
8 -66 10 -80 6 -35 13 -101 21 -195 4 -44 9 -93 11 -110 3 -16 7 -329 10 -694
4 -471 2 -675 -6 -701 -14 -48 -54 -88 -100 -99 -20 -5 -106 -12 -191 -16 -85
-3 -168 -8 -185 -9 -16 -2 -65 -7 -107 -10 -43 -4 -88 -9 -100 -11 -22 -3 -76
-11 -158 -21 -19 -2 -71 -11 -115 -19 -44 -8 -91 -16 -105 -19 -14 -2 -36 -7
-50 -10 -14 -3 -36 -8 -50 -10 -53 -9 -254 -58 -382 -92 -130 -36 -268 -68
-338 -79 -19 -3 -105 -7 -190 -9 -166 -4 -252 4 -415 38 -157 33 -329 97 -515
190 l-126 64 -249 5 c-268 5 -326 14 -474 73 -254 101 -470 312 -576 563 -57
136 -78 239 -79 396 -1 160 5 206 40 325 52 172 127 294 263 431 152 151 315
243 496 280 28 6 64 13 80 17 17 4 95 6 175 6 117 0 162 -5 234 -23 310 -80
564 -285 702 -567 15 -30 24 -57 22 -60 -3 -3 -17 -7 -31 -10 -46 -8 -269 -73
-342 -100 -80 -29 -106 -47 -129 -92 -46 -90 25 -212 124 -212 20 0 93 18 161
40 68 22 133 42 144 45 11 2 48 11 82 19 34 9 77 18 95 21 18 3 44 7 58 10
238 44 512 9 854 -107 134 -45 205 -30 247 53 15 29 18 76 23 309 4 151 8 289
10 305 2 17 7 64 10 105 4 41 9 89 11 105 2 17 7 53 10 80 3 28 7 61 10 75 2
14 7 42 10 63 12 86 18 118 41 237 14 69 28 136 30 150 12 65 89 348 125 463
33 103 40 137 35 172 -8 47 -49 99 -92 115 -15 6 -224 10 -505 10 -457 0 -482
1 -518 20 -60 30 -81 83 -81 203 l0 97 310 0 c171 0 313 0 318 1 34 5 83 44
101 82 24 49 26 84 9 124 -40 88 -62 93 -413 93 l-296 0 6 23 c23 75 124 183
213 228 89 44 129 48 417 45 149 -2 281 -6 294 -9z"/>
</g>
</svg>
